<svg width="475" height="479" viewBox="0 0 475 479" fill="none" xmlns="http://www.w3.org/2000/svg">
<path opacity="0.82" d="M237.421 37.9211C347.626 37.9211 436.921 128.16 436.921 239.421C436.921 350.683 347.626 440.921 237.421 440.921C127.217 440.921 37.9211 350.683 37.9211 239.421C37.9211 128.16 127.217 37.9211 237.421 37.9211Z" fill="#8390FA" fill-opacity="0.75" stroke="#282829" stroke-width="5"/>
<g filter="url(#filter0_d_1_6723)">
<mask id="path-2-outside-1_1_6723" maskUnits="userSpaceOnUse" x="109.5" y="172" width="252" height="173" fill="black">
<rect fill="white" x="109.5" y="172" width="252" height="173"/>
<path d="M156.722 339.08C146.26 339.08 137.522 336.608 130.508 331.664C123.61 326.835 119.413 320.396 117.918 312.348H131.025C132.29 316.947 135.107 320.569 139.476 323.213C143.96 325.972 149.996 327.352 157.585 327.352C166.553 327.352 173.336 324.88 177.935 319.936C182.534 315.107 184.834 307.979 184.834 298.551V279.752L186.559 280.097C184.604 286.766 180.695 292.112 174.831 296.136C168.967 300.045 162.011 302 153.963 302C146.26 302 139.476 300.16 133.612 296.481C127.749 292.687 123.207 287.456 119.988 280.787C116.768 274.118 115.159 266.358 115.159 257.505C115.159 248.536 116.826 240.661 120.16 233.877C123.495 227.093 128.151 221.862 134.13 218.183C140.223 214.389 147.294 212.492 155.343 212.492C163.621 212.492 170.519 214.504 176.038 218.528C181.672 222.552 185.409 228.301 187.248 235.774L185.696 235.947V214.044H198.631V298.551C198.631 311.083 194.894 320.971 187.421 328.214C179.947 335.458 169.715 339.08 156.722 339.08ZM157.412 290.1C166.035 290.1 172.876 287.111 177.935 281.132C182.994 275.153 185.524 267.047 185.524 256.815C185.524 246.812 182.994 238.936 177.935 233.187C172.876 227.323 166.035 224.392 157.412 224.392C148.674 224.392 141.776 227.323 136.717 233.187C131.773 239.051 129.301 247.099 129.301 257.332C129.301 267.335 131.83 275.326 136.889 281.304C141.948 287.168 148.789 290.1 157.412 290.1ZM236.65 302V214.044H250.447V302H236.65ZM235.615 194.038V177.827H251.482V194.038H235.615ZM341.905 302C341.445 300.045 341.1 297.803 340.87 295.274C340.755 292.744 340.698 289.525 340.698 285.616H339.835V243.535C339.835 236.866 338.283 231.98 335.179 228.876C332.189 225.656 327.303 224.047 320.519 224.047C313.851 224.047 308.504 225.426 304.48 228.186C300.571 230.83 298.387 234.624 297.927 239.568H284.647C285.222 231.06 288.786 224.392 295.34 219.563C301.893 214.734 310.459 212.319 321.037 212.319C331.959 212.319 340.065 214.906 345.354 220.08C350.643 225.254 353.287 233.015 353.287 243.363V285.616C353.287 288.145 353.46 290.79 353.805 293.549C354.15 296.194 354.61 299.011 355.184 302H341.905ZM311.724 303.725C302.641 303.725 295.397 301.54 289.993 297.171C284.704 292.687 282.06 286.593 282.06 278.89C282.06 271.187 284.704 265.208 289.993 260.954C295.282 256.7 302.986 253.71 313.103 251.986L343.802 246.812V258.194L315.173 262.678C308.734 263.713 303.848 265.438 300.514 267.852C297.179 270.267 295.512 273.774 295.512 278.373C295.512 282.857 297.007 286.248 299.996 288.548C303.101 290.847 307.642 291.997 313.621 291.997C321.324 291.997 327.59 290.273 332.419 286.823C337.363 283.259 339.835 278.66 339.835 273.026L342.077 285.271C340.238 291.135 336.616 295.676 331.212 298.896C325.923 302.115 319.427 303.725 311.724 303.725Z"/>
</mask>
<g filter="url(#filter1_i_1_6723)">
<path d="M156.722 339.08C146.26 339.08 137.522 336.608 130.508 331.664C123.61 326.835 119.413 320.396 117.918 312.348H131.025C132.29 316.947 135.107 320.569 139.476 323.213C143.96 325.972 149.996 327.352 157.585 327.352C166.553 327.352 173.336 324.88 177.935 319.936C182.534 315.107 184.834 307.979 184.834 298.551V279.752L186.559 280.097C184.604 286.766 180.695 292.112 174.831 296.136C168.967 300.045 162.011 302 153.963 302C146.26 302 139.476 300.16 133.612 296.481C127.749 292.687 123.207 287.456 119.988 280.787C116.768 274.118 115.159 266.358 115.159 257.505C115.159 248.536 116.826 240.661 120.16 233.877C123.495 227.093 128.151 221.862 134.13 218.183C140.223 214.389 147.294 212.492 155.343 212.492C163.621 212.492 170.519 214.504 176.038 218.528C181.672 222.552 185.409 228.301 187.248 235.774L185.696 235.947V214.044H198.631V298.551C198.631 311.083 194.894 320.971 187.421 328.214C179.947 335.458 169.715 339.08 156.722 339.08ZM157.412 290.1C166.035 290.1 172.876 287.111 177.935 281.132C182.994 275.153 185.524 267.047 185.524 256.815C185.524 246.812 182.994 238.936 177.935 233.187C172.876 227.323 166.035 224.392 157.412 224.392C148.674 224.392 141.776 227.323 136.717 233.187C131.773 239.051 129.301 247.099 129.301 257.332C129.301 267.335 131.83 275.326 136.889 281.304C141.948 287.168 148.789 290.1 157.412 290.1ZM236.65 302V214.044H250.447V302H236.65ZM235.615 194.038V177.827H251.482V194.038H235.615ZM341.905 302C341.445 300.045 341.1 297.803 340.87 295.274C340.755 292.744 340.698 289.525 340.698 285.616H339.835V243.535C339.835 236.866 338.283 231.98 335.179 228.876C332.189 225.656 327.303 224.047 320.519 224.047C313.851 224.047 308.504 225.426 304.48 228.186C300.571 230.83 298.387 234.624 297.927 239.568H284.647C285.222 231.06 288.786 224.392 295.34 219.563C301.893 214.734 310.459 212.319 321.037 212.319C331.959 212.319 340.065 214.906 345.354 220.08C350.643 225.254 353.287 233.015 353.287 243.363V285.616C353.287 288.145 353.46 290.79 353.805 293.549C354.15 296.194 354.61 299.011 355.184 302H341.905ZM311.724 303.725C302.641 303.725 295.397 301.54 289.993 297.171C284.704 292.687 282.06 286.593 282.06 278.89C282.06 271.187 284.704 265.208 289.993 260.954C295.282 256.7 302.986 253.71 313.103 251.986L343.802 246.812V258.194L315.173 262.678C308.734 263.713 303.848 265.438 300.514 267.852C297.179 270.267 295.512 273.774 295.512 278.373C295.512 282.857 297.007 286.248 299.996 288.548C303.101 290.847 307.642 291.997 313.621 291.997C321.324 291.997 327.59 290.273 332.419 286.823C337.363 283.259 339.835 278.66 339.835 273.026L342.077 285.271C340.238 291.135 336.616 295.676 331.212 298.896C325.923 302.115 319.427 303.725 311.724 303.725Z" fill="#F4F2F3"/>
</g>
<path d="M130.508 331.664L133.389 327.577L133.382 327.572L133.375 327.568L130.508 331.664ZM117.918 312.348V307.348H111.904L113.002 313.261L117.918 312.348ZM131.025 312.348L135.846 311.022L134.836 307.348H131.025V312.348ZM139.476 323.213L142.097 318.955L142.081 318.945L142.065 318.935L139.476 323.213ZM177.935 319.936L174.315 316.488L174.294 316.509L174.274 316.531L177.935 319.936ZM184.834 279.752L185.815 274.849L179.834 273.653V279.752H184.834ZM186.559 280.097L191.357 281.504L192.892 276.265L187.539 275.194L186.559 280.097ZM174.831 296.136L177.605 300.297L177.633 300.278L177.66 300.259L174.831 296.136ZM133.612 296.481L130.896 300.679L130.925 300.698L130.955 300.716L133.612 296.481ZM119.988 280.787L115.485 282.961L115.485 282.961L119.988 280.787ZM120.16 233.877L124.647 236.083L124.647 236.083L120.16 233.877ZM134.13 218.183L136.75 222.441L136.761 222.434L136.773 222.427L134.13 218.183ZM176.038 218.528L173.092 222.568L173.112 222.582L173.132 222.596L176.038 218.528ZM187.248 235.774L187.801 240.744L193.466 240.114L192.103 234.579L187.248 235.774ZM185.696 235.947H180.696V241.533L186.248 240.916L185.696 235.947ZM185.696 214.044V209.044H180.696V214.044H185.696ZM198.631 214.044H203.631V209.044H198.631V214.044ZM187.421 328.214L190.901 331.805L190.901 331.805L187.421 328.214ZM177.935 233.187L174.15 236.453L174.166 236.472L174.182 236.49L177.935 233.187ZM136.717 233.187L132.931 229.921L132.912 229.943L132.894 229.964L136.717 233.187ZM136.889 281.304L133.072 284.534L133.088 284.552L133.103 284.571L136.889 281.304ZM156.722 339.08V334.08C147.061 334.08 139.389 331.807 133.389 327.577L130.508 331.664L127.627 335.75C135.654 341.409 145.458 344.08 156.722 344.08V339.08ZM130.508 331.664L133.375 327.568C127.516 323.466 124.082 318.154 122.834 311.435L117.918 312.348L113.002 313.261C114.744 322.638 119.703 330.203 127.641 335.76L130.508 331.664ZM117.918 312.348V317.348H131.025V312.348V307.348H117.918V312.348ZM131.025 312.348L126.204 313.674C127.834 319.598 131.509 324.235 136.887 327.49L139.476 323.213L142.065 318.935C138.705 316.902 136.747 314.295 135.846 311.022L131.025 312.348ZM139.476 323.213L136.856 327.471C142.402 330.884 149.457 332.352 157.585 332.352V327.352V322.352C150.536 322.352 145.518 321.06 142.097 318.955L139.476 323.213ZM157.585 327.352V332.352C167.465 332.352 175.769 329.606 181.596 323.342L177.935 319.936L174.274 316.531C170.903 320.154 165.641 322.352 157.585 322.352V327.352ZM177.935 319.936L181.556 323.384C187.35 317.301 189.834 308.729 189.834 298.551H184.834H179.834C179.834 307.228 177.719 312.914 174.315 316.488L177.935 319.936ZM184.834 298.551H189.834V279.752H184.834H179.834V298.551H184.834ZM184.834 279.752L183.853 284.655L185.578 285L186.559 280.097L187.539 275.194L185.815 274.849L184.834 279.752ZM186.559 280.097L181.76 278.691C180.138 284.226 176.94 288.625 172.002 292.014L174.831 296.136L177.66 300.259C184.449 295.6 189.07 289.305 191.357 281.504L186.559 280.097ZM174.831 296.136L172.058 291.976C167.128 295.263 161.169 297 153.963 297V302V307C162.854 307 170.807 304.828 177.605 300.297L174.831 296.136ZM153.963 302V297C147.09 297 141.249 295.37 136.27 292.246L133.612 296.481L130.955 300.716C137.703 304.95 145.429 307 153.963 307V302ZM133.612 296.481L136.329 292.283C131.282 289.018 127.336 284.508 124.491 278.613L119.988 280.787L115.485 282.961C119.078 290.403 124.216 296.356 130.896 300.679L133.612 296.481ZM119.988 280.787L124.491 278.613C121.656 272.742 120.159 265.75 120.159 257.505H115.159H110.159C110.159 266.965 111.881 275.494 115.485 282.961L119.988 280.787ZM115.159 257.505H120.159C120.159 249.16 121.708 242.063 124.647 236.083L120.16 233.877L115.673 231.671C111.944 239.258 110.159 247.913 110.159 257.505H115.159ZM120.16 233.877L124.647 236.083C127.599 230.078 131.637 225.588 136.75 222.441L134.13 218.183L131.509 213.925C124.665 218.136 119.39 224.109 115.673 231.671L120.16 233.877ZM134.13 218.183L136.773 222.427C141.98 219.185 148.112 217.492 155.343 217.492V212.492V207.492C146.477 207.492 138.467 209.592 131.487 213.938L134.13 218.183ZM155.343 212.492V217.492C162.792 217.492 168.598 219.29 173.092 222.568L176.038 218.528L178.984 214.488C172.441 209.717 164.45 207.492 155.343 207.492V212.492ZM176.038 218.528L173.132 222.596C177.684 225.848 180.805 230.517 182.393 236.969L187.248 235.774L192.103 234.579C190.013 226.084 185.661 219.256 178.945 214.459L176.038 218.528ZM187.248 235.774L186.696 230.805L185.144 230.977L185.696 235.947L186.248 240.916L187.801 240.744L187.248 235.774ZM185.696 235.947H190.696V214.044H185.696H180.696V235.947H185.696ZM185.696 214.044V219.044H198.631V214.044V209.044H185.696V214.044ZM198.631 214.044H193.631V298.551H198.631H203.631V214.044H198.631ZM198.631 298.551H193.631C193.631 310.027 190.248 318.511 183.941 324.624L187.421 328.214L190.901 331.805C199.54 323.431 203.631 312.139 203.631 298.551H198.631ZM187.421 328.214L183.941 324.624C177.619 330.752 168.755 334.08 156.722 334.08V339.08V344.08C170.674 344.08 182.276 340.164 190.901 331.805L187.421 328.214ZM157.412 290.1V295.1C167.338 295.1 175.64 291.585 181.752 284.362L177.935 281.132L174.118 277.902C170.113 282.636 164.733 285.1 157.412 285.1V290.1ZM177.935 281.132L181.752 284.362C187.783 277.234 190.524 267.862 190.524 256.815H185.524H180.524C180.524 266.233 178.205 273.072 174.118 277.902L177.935 281.132ZM185.524 256.815H190.524C190.524 245.976 187.771 236.796 181.689 229.884L177.935 233.187L174.182 236.49C178.218 241.076 180.524 247.648 180.524 256.815H185.524ZM177.935 233.187L181.721 229.921C175.598 222.824 167.304 219.392 157.412 219.392V224.392V229.392C164.767 229.392 170.155 231.823 174.15 236.453L177.935 233.187ZM157.412 224.392V219.392C147.429 219.392 139.068 222.808 132.931 229.921L136.717 233.187L140.502 236.453C144.483 231.839 149.92 229.392 157.412 229.392V224.392ZM136.717 233.187L132.894 229.964C126.968 236.993 124.301 246.317 124.301 257.332H129.301H134.301C134.301 247.882 136.578 241.109 140.539 236.41L136.717 233.187ZM129.301 257.332H124.301C124.301 268.182 127.058 277.426 133.072 284.534L136.889 281.304L140.706 278.075C136.603 273.226 134.301 266.488 134.301 257.332H129.301ZM136.889 281.304L133.103 284.571C139.227 291.668 147.52 295.1 157.412 295.1V290.1V285.1C150.058 285.1 144.669 282.668 140.675 278.038L136.889 281.304ZM236.65 302H231.65V307H236.65V302ZM236.65 214.044V209.044H231.65V214.044H236.65ZM250.447 214.044H255.447V209.044H250.447V214.044ZM250.447 302V307H255.447V302H250.447ZM235.615 194.038H230.615V199.038H235.615V194.038ZM235.615 177.827V172.827H230.615V177.827H235.615ZM251.482 177.827H256.482V172.827H251.482V177.827ZM251.482 194.038V199.038H256.482V194.038H251.482ZM236.65 302H241.65V214.044H236.65H231.65V302H236.65ZM236.65 214.044V219.044H250.447V214.044V209.044H236.65V214.044ZM250.447 214.044H245.447V302H250.447H255.447V214.044H250.447ZM250.447 302V297H236.65V302V307H250.447V302ZM235.615 194.038H240.615V177.827H235.615H230.615V194.038H235.615ZM235.615 177.827V182.827H251.482V177.827V172.827H235.615V177.827ZM251.482 177.827H246.482V194.038H251.482H256.482V177.827H251.482ZM251.482 194.038V189.038H235.615V194.038V199.038H251.482V194.038ZM341.905 302L337.038 303.145L337.945 307H341.905V302ZM340.87 295.274L335.875 295.501L335.88 295.614L335.891 295.727L340.87 295.274ZM340.698 285.616H345.698V280.616H340.698V285.616ZM339.835 285.616H334.835V290.616H339.835V285.616ZM335.179 228.876L331.515 232.278L331.578 232.346L331.643 232.411L335.179 228.876ZM304.48 228.186L307.282 232.327L307.295 232.318L307.308 232.309L304.48 228.186ZM297.927 239.568V244.568H302.483L302.905 240.031L297.927 239.568ZM284.647 239.568L279.658 239.231L279.298 244.568H284.647V239.568ZM295.34 219.563L298.306 223.588L298.306 223.588L295.34 219.563ZM345.354 220.08L348.851 216.506L345.354 220.08ZM353.805 293.549L348.843 294.169L348.845 294.183L348.847 294.196L353.805 293.549ZM355.184 302V307H361.238L360.094 301.056L355.184 302ZM289.993 297.171L286.76 300.985L286.804 301.023L286.85 301.059L289.993 297.171ZM313.103 251.986L312.272 247.055L312.263 247.057L313.103 251.986ZM343.802 246.812H348.802V240.899L342.971 241.881L343.802 246.812ZM343.802 258.194L344.576 263.134L348.802 262.472V258.194H343.802ZM315.173 262.678L314.399 257.739L314.389 257.74L314.38 257.742L315.173 262.678ZM300.514 267.852L297.581 263.803L297.581 263.803L300.514 267.852ZM299.996 288.548L296.948 292.511L296.984 292.539L297.02 292.566L299.996 288.548ZM332.419 286.823L335.325 290.892L335.334 290.886L335.343 290.879L332.419 286.823ZM339.835 273.026L344.753 272.126L334.835 273.026H339.835ZM342.077 285.271L346.848 286.768L347.218 285.587L346.995 284.371L342.077 285.271ZM331.212 298.896L328.653 294.6L328.633 294.612L328.612 294.625L331.212 298.896ZM341.905 302L346.772 300.855C346.377 299.179 346.063 297.175 345.849 294.821L340.87 295.274L335.891 295.727C336.136 298.431 336.512 300.912 337.038 303.145L341.905 302ZM340.87 295.274L345.865 295.047C345.755 292.622 345.698 289.485 345.698 285.616H340.698H335.698C335.698 289.565 335.755 292.867 335.875 295.501L340.87 295.274ZM340.698 285.616V280.616H339.835V285.616V290.616H340.698V285.616ZM339.835 285.616H344.835V243.535H339.835H334.835V285.616H339.835ZM339.835 243.535H344.835C344.835 236.217 343.145 229.771 338.714 225.34L335.179 228.876L331.643 232.411C333.421 234.189 334.835 237.516 334.835 243.535H339.835ZM335.179 228.876L338.843 225.473C334.497 220.793 327.946 219.047 320.519 219.047V224.047V229.047C326.66 229.047 329.882 230.519 331.515 232.278L335.179 228.876ZM320.519 224.047V219.047C313.202 219.047 306.764 220.557 301.653 224.062L304.48 228.186L307.308 232.309C310.245 230.296 314.499 229.047 320.519 229.047V224.047ZM304.48 228.186L301.679 224.044C296.458 227.576 293.538 232.76 292.948 239.105L297.927 239.568L302.905 240.031C303.235 236.488 304.685 234.084 307.282 232.327L304.48 228.186ZM297.927 239.568V234.568H284.647V239.568V244.568H297.927V239.568ZM284.647 239.568L289.636 239.905C290.117 232.784 292.999 227.498 298.306 223.588L295.34 219.563L292.374 215.537C284.573 221.285 280.327 229.336 279.658 239.231L284.647 239.568ZM295.34 219.563L298.306 223.588C303.774 219.558 311.207 217.319 321.037 217.319V212.319V207.319C309.711 207.319 300.012 209.909 292.374 215.537L295.34 219.563ZM321.037 212.319V217.319C331.269 217.319 337.867 219.75 341.858 223.654L345.354 220.08L348.851 216.506C342.264 210.062 332.649 207.319 321.037 207.319V212.319ZM345.354 220.08L341.858 223.654C345.854 227.564 348.287 233.814 348.287 243.363H353.287H358.287C358.287 232.216 355.432 222.944 348.851 216.506L345.354 220.08ZM353.287 243.363H348.287V285.616H353.287H358.287V243.363H353.287ZM353.287 285.616H348.287C348.287 288.372 348.475 291.224 348.843 294.169L353.805 293.549L358.766 292.929C358.444 290.355 358.287 287.919 358.287 285.616H353.287ZM353.805 293.549L348.847 294.196C349.206 296.953 349.683 299.87 350.274 302.944L355.184 302L360.094 301.056C359.536 298.152 359.093 295.435 358.763 292.903L353.805 293.549ZM355.184 302V297H341.905V302V307H355.184V302ZM311.724 303.725V298.725C303.43 298.725 297.41 296.737 293.137 293.283L289.993 297.171L286.85 301.059C293.385 306.343 301.851 308.725 311.724 308.725V303.725ZM289.993 297.171L293.227 293.357C289.191 289.936 287.06 285.308 287.06 278.89H282.06H277.06C277.06 287.879 280.218 295.438 286.76 300.985L289.993 297.171ZM282.06 278.89H287.06C287.06 272.47 289.187 268.019 293.127 264.85L289.993 260.954L286.86 257.058C280.222 262.397 277.06 269.903 277.06 278.89H282.06ZM289.993 260.954L293.127 264.85C297.497 261.335 304.27 258.564 313.944 256.915L313.103 251.986L312.263 247.057C301.701 248.857 293.068 252.064 286.86 257.058L289.993 260.954ZM313.103 251.986L313.934 256.916L344.633 251.742L343.802 246.812L342.971 241.881L312.272 247.055L313.103 251.986ZM343.802 246.812H338.802V258.194H343.802H348.802V246.812H343.802ZM343.802 258.194L343.028 253.255L314.399 257.739L315.173 262.678L315.947 267.618L344.576 263.134L343.802 258.194ZM315.173 262.678L314.38 257.742C307.573 258.836 301.814 260.738 297.581 263.803L300.514 267.852L303.446 271.902C305.882 270.138 309.896 268.591 315.966 267.615L315.173 262.678ZM300.514 267.852L297.581 263.803C292.782 267.278 290.512 272.387 290.512 278.373H295.512H300.512C300.512 275.16 301.577 273.256 303.446 271.902L300.514 267.852ZM295.512 278.373H290.512C290.512 284.08 292.489 289.081 296.948 292.511L299.996 288.548L303.045 284.585C301.525 283.416 300.512 281.633 300.512 278.373H295.512ZM299.996 288.548L297.02 292.566C301.342 295.767 307.12 296.997 313.621 296.997V291.997V286.997C308.164 286.997 304.859 285.928 302.972 284.53L299.996 288.548ZM313.621 291.997V296.997C322.057 296.997 329.427 295.105 335.325 290.892L332.419 286.823L329.513 282.755C325.753 285.44 320.592 286.997 313.621 286.997V291.997ZM332.419 286.823L335.343 290.879C341.466 286.465 344.835 280.415 344.835 273.026H339.835H334.835C334.835 276.905 333.26 280.053 329.495 282.767L332.419 286.823ZM339.835 273.026L334.917 273.927L337.159 286.172L342.077 285.271L346.995 284.371L344.753 272.126L339.835 273.026ZM342.077 285.271L337.306 283.774C335.844 288.435 333.028 291.994 328.653 294.6L331.212 298.896L333.771 303.191C340.204 299.359 344.631 293.835 346.848 286.768L342.077 285.271ZM331.212 298.896L328.612 294.625C324.277 297.263 318.733 298.725 311.724 298.725V303.725V308.725C320.121 308.725 327.569 306.967 333.812 303.167L331.212 298.896Z" fill="#282829" mask="url(#path-2-outside-1_1_6723)"/>
</g>
<defs>
<filter id="filter0_d_1_6723" x="51" y="134" width="372" height="329" filterUnits="userSpaceOnUse" color-interpolation-filters="sRGB">
<feFlood flood-opacity="0" result="BackgroundImageFix"/>
<feColorMatrix in="SourceAlpha" type="matrix" values="0 0 0 0 0 0 0 0 0 0 0 0 0 0 0 0 0 0 127 0" result="hardAlpha"/>
<feOffset dy="4"/>
<feGaussianBlur stdDeviation="2"/>
<feComposite in2="hardAlpha" operator="out"/>
<feColorMatrix type="matrix" values="0 0 0 0 0.935584 0 0 0 0 0.881362 0 0 0 0 0.892208 0 0 0 1 0"/>
<feBlend mode="normal" in2="BackgroundImageFix" result="effect1_dropShadow_1_6723"/>
<feBlend mode="normal" in="SourceGraphic" in2="effect1_dropShadow_1_6723" result="shape"/>
</filter>
<filter id="filter1_i_1_6723" x="110.159" y="172.827" width="251.079" height="192.811" filterUnits="userSpaceOnUse" color-interpolation-filters="sRGB">
<feFlood flood-opacity="0" result="BackgroundImageFix"/>
<feBlend mode="normal" in="SourceGraphic" in2="BackgroundImageFix" result="shape"/>
<feColorMatrix in="SourceAlpha" type="matrix" values="0 0 0 0 0 0 0 0 0 0 0 0 0 0 0 0 0 0 127 0" result="hardAlpha"/>
<feOffset dy="21.5579"/>
<feGaussianBlur stdDeviation="10.7789"/>
<feComposite in2="hardAlpha" operator="arithmetic" k2="-1" k3="1"/>
<feColorMatrix type="matrix" values="0 0 0 0 0.976471 0 0 0 0 0.956863 0 0 0 0 0.960784 0 0 0 0.25 0"/>
<feBlend mode="normal" in2="shape" result="effect1_innerShadow_1_6723"/>
</filter>
</defs>
</svg>

